<mxfile host="app.diagrams.net" agent="Mozilla/5.0 (Windows NT 10.0; Win64; x64) AppleWebKit/537.36 (KHTML, like Gecko) Chrome/140.0.0.0 Safari/537.36" version="28.2.7">
  <diagram name="图1_方法总体架构" id="BcQUYUixFCPhac2G8tOT">
    <mxGraphModel dx="1426" dy="743" grid="0" gridSize="10" guides="1" tooltips="1" connect="1" arrows="1" fold="1" page="1" pageScale="1" pageWidth="827" pageHeight="1169" math="0" shadow="0">
      <root>
        <mxCell id="0" />
        <mxCell id="1" parent="0" />
        <mxCell id="1jVp4gBi2dx-fvzjmEcd-44" value="" style="rounded=1;whiteSpace=wrap;html=1;" vertex="1" parent="1">
          <mxGeometry x="359.5" y="203" width="193" height="504" as="geometry" />
        </mxCell>
        <mxCell id="1jVp4gBi2dx-fvzjmEcd-41" value="" style="rounded=1;whiteSpace=wrap;html=1;" vertex="1" parent="1">
          <mxGeometry x="77" y="203" width="193" height="182" as="geometry" />
        </mxCell>
        <mxCell id="1jVp4gBi2dx-fvzjmEcd-30" style="edgeStyle=orthogonalEdgeStyle;rounded=0;orthogonalLoop=1;jettySize=auto;html=1;exitX=1;exitY=0.5;exitDx=0;exitDy=0;" edge="1" parent="1" source="1jVp4gBi2dx-fvzjmEcd-28" target="1jVp4gBi2dx-fvzjmEcd-29">
          <mxGeometry relative="1" as="geometry" />
        </mxCell>
        <mxCell id="1jVp4gBi2dx-fvzjmEcd-31" value="生理特征向量" style="edgeLabel;html=1;align=center;verticalAlign=middle;resizable=0;points=[];" vertex="1" connectable="0" parent="1jVp4gBi2dx-fvzjmEcd-30">
          <mxGeometry x="-0.0513" y="3" relative="1" as="geometry">
            <mxPoint as="offset" />
          </mxGeometry>
        </mxCell>
        <mxCell id="1jVp4gBi2dx-fvzjmEcd-28" value="生理信号采集模块" style="rounded=1;whiteSpace=wrap;html=1;" vertex="1" parent="1">
          <mxGeometry x="120" y="271" width="120" height="60" as="geometry" />
        </mxCell>
        <mxCell id="1jVp4gBi2dx-fvzjmEcd-34" style="edgeStyle=orthogonalEdgeStyle;rounded=0;orthogonalLoop=1;jettySize=auto;html=1;exitX=0.5;exitY=1;exitDx=0;exitDy=0;" edge="1" parent="1" source="1jVp4gBi2dx-fvzjmEcd-29" target="1jVp4gBi2dx-fvzjmEcd-33">
          <mxGeometry relative="1" as="geometry" />
        </mxCell>
        <mxCell id="1jVp4gBi2dx-fvzjmEcd-35" value="当前用户身份数据" style="edgeLabel;html=1;align=center;verticalAlign=middle;resizable=0;points=[];" vertex="1" connectable="0" parent="1jVp4gBi2dx-fvzjmEcd-34">
          <mxGeometry x="-0.2537" y="1" relative="1" as="geometry">
            <mxPoint as="offset" />
          </mxGeometry>
        </mxCell>
        <mxCell id="1jVp4gBi2dx-fvzjmEcd-29" value="&lt;p class=&quot;MsoNormal&quot;&gt;&lt;font style=&quot;font-size: 12px;&quot; face=&quot;Helvetica&quot;&gt;多模态融合识别模块&lt;/font&gt;&lt;/p&gt;" style="rounded=1;whiteSpace=wrap;html=1;" vertex="1" parent="1">
          <mxGeometry x="396" y="271" width="120" height="60" as="geometry" />
        </mxCell>
        <mxCell id="1jVp4gBi2dx-fvzjmEcd-37" style="edgeStyle=orthogonalEdgeStyle;rounded=0;orthogonalLoop=1;jettySize=auto;html=1;exitX=0.5;exitY=1;exitDx=0;exitDy=0;" edge="1" parent="1" source="1jVp4gBi2dx-fvzjmEcd-33" target="1jVp4gBi2dx-fvzjmEcd-36">
          <mxGeometry relative="1" as="geometry" />
        </mxCell>
        <mxCell id="1jVp4gBi2dx-fvzjmEcd-38" value="用户画像数据" style="edgeLabel;html=1;align=center;verticalAlign=middle;resizable=0;points=[];" vertex="1" connectable="0" parent="1jVp4gBi2dx-fvzjmEcd-37">
          <mxGeometry x="-0.1" y="2" relative="1" as="geometry">
            <mxPoint as="offset" />
          </mxGeometry>
        </mxCell>
        <mxCell id="1jVp4gBi2dx-fvzjmEcd-33" value="用户画像建模模块" style="rounded=1;whiteSpace=wrap;html=1;" vertex="1" parent="1">
          <mxGeometry x="396" y="398" width="120" height="60" as="geometry" />
        </mxCell>
        <mxCell id="1jVp4gBi2dx-fvzjmEcd-40" style="edgeStyle=orthogonalEdgeStyle;rounded=0;orthogonalLoop=1;jettySize=auto;html=1;exitX=0.5;exitY=1;exitDx=0;exitDy=0;" edge="1" parent="1" source="1jVp4gBi2dx-fvzjmEcd-36" target="1jVp4gBi2dx-fvzjmEcd-39">
          <mxGeometry relative="1" as="geometry" />
        </mxCell>
        <mxCell id="1jVp4gBi2dx-fvzjmEcd-36" value="应用预测推荐模块" style="rounded=1;whiteSpace=wrap;html=1;" vertex="1" parent="1">
          <mxGeometry x="396" y="518" width="120" height="60" as="geometry" />
        </mxCell>
        <mxCell id="1jVp4gBi2dx-fvzjmEcd-39" value="显示单元" style="rounded=1;whiteSpace=wrap;html=1;" vertex="1" parent="1">
          <mxGeometry x="396" y="627" width="120" height="60" as="geometry" />
        </mxCell>
        <mxCell id="1jVp4gBi2dx-fvzjmEcd-42" value="遥控器" style="text;html=1;whiteSpace=wrap;strokeColor=none;fillColor=none;align=center;verticalAlign=middle;rounded=0;" vertex="1" parent="1">
          <mxGeometry x="143.5" y="218" width="60" height="30" as="geometry" />
        </mxCell>
        <mxCell id="1jVp4gBi2dx-fvzjmEcd-47" value="电视" style="text;html=1;whiteSpace=wrap;strokeColor=none;fillColor=none;align=center;verticalAlign=middle;rounded=0;" vertex="1" parent="1">
          <mxGeometry x="430" y="212" width="60" height="30" as="geometry" />
        </mxCell>
      </root>
    </mxGraphModel>
  </diagram>
</mxfile>
